# xmcd CD database file
#
# Track frame offsets:
#	183
#	25535
#	35810
#	52810
#	73713
#	94280
#	120783
#	142848
#	155613
#	179015
#	195885
#	214908
#	237290
#
# Disc length: 3465 seconds
#
# Revision: 1
# Processed by: cddbd v1.5.2PL0 Copyright (c) Steve Scherf et al.
# Submitted via: CDex 1.70beta2
#
DISCID=aa0d870d
DTITLE=GreenPeace - New Age Music Collection
DYEAR=1988
DGENRE=New Age
TTITLE0=Lucia Hwong - Tibet Suite: Himalayan TwiLight, Reflection of Lunar Light
TTITLE1=John Mc Cutcheon - Jesus, Jesus. Rest your Head
TTITLE2=William Ellwood - Signals
TTITLE3=Elipsis - American Primitive
TTITLE4=Jim Chappel - Stars in the Yard
TTITLE5=John Themis - Cross Crusader
TTITLE6=Montreux - Sign Language
TTITLE7=Mannheim Steamroller - Interlude 1
TTITLE8=Christaal - Light on the Path
TTITLE9=Metamora - Big Scioty
TTITLE10=Ben Tavera King - Cactus Blossom
TTITLE11=Quartett - Lonely Woman
TTITLE12=Michael Hoppè - Eyes of the Wind Theme
EXTD=YEAR: 1988
EXTT0=
EXTT1=
EXTT2=
EXTT3=
EXTT4=
EXTT5=
EXTT6=
EXTT7=
EXTT8=
EXTT9=
EXTT10=
EXTT11=
EXTT12=
PLAYORDER=
